# xmcd
#
# Track frame offsets: 
#        150
#        11992
#        24877
#        37201
#        47938
#        61999
#        76355
#        87500
#        102693
#        115951
#        133169
#        145731
#        158195
#        174020
#        187811
#        200822
#        213187
#        224987
#        236271
#        247488
#
# Disc length: 3483 seconds
#
# Revision: 1
# Processed by: cddbd v1.5.2PL0 Copyright (c) Steve Scherf et al.
# Submitted via: ExactAudioCopy v0.99pb5
#
DISCID=2f0d9914
DTITLE=Charlie Parker - The Essential CD2
DYEAR=1900
DGENRE=Jazz
TTITLE0=Milestones
TTITLE1=Little Willie Leaps
TTITLE2=Half Nelson
TTITLE3=Sippin' At Bella
TTITLE4=Dewey Square
TTITLE5=Bird Of Paradise
TTITLE6=The Hymn
TTITLE7=Embraceable You
TTITLE8=Scrapple From The Apple
TTITLE9=Out Of Nowhere
TTITLE10=Don't Blame Me
TTITLE11=Charlie's Wig
TTITLE12=How Deep Is The Ocean
TTITLE13=Crazeology
TTITLE14=Bluebird
TTITLE15=Klaunstance
TTITLE16=Bird Gets The Worm
TTITLE17=Barbados
TTITLE18=Constellation
TTITLE19=Parker's Mood
EXTD=
EXTT0=
EXTT1=
EXTT2=
EXTT3=
EXTT4=
EXTT5=
EXTT6=
EXTT7=
EXTT8=
EXTT9=
EXTT10=
EXTT11=
EXTT12=
EXTT13=
EXTT14=
EXTT15=
EXTT16=
EXTT17=
EXTT18=
EXTT19=
PLAYORDER=
